<?xml version="1.0" encoding="UTF-8" standalone="no"?>
<!DOCTYPE svg PUBLIC "-//W3C//DTD SVG 1.1//EN"
 "http://www.w3.org/Graphics/SVG/1.1/DTD/svg11.dtd">
<!-- Generated by graphviz version 14.0.4 (20251115.1723)
 -->
<!-- Title: BiLSTM Pages: 1 -->
<svg width="1151pt" height="91pt"
 viewBox="0.00 0.00 1151.00 91.00" xmlns="http://www.w3.org/2000/svg" xmlns:xlink="http://www.w3.org/1999/xlink">
<g id="graph0" class="graph" transform="scale(1 1) rotate(0) translate(4 87.28)">
<title>BiLSTM</title>
<polygon fill="white" stroke="none" points="-4,4 -4,-87.28 1146.87,-87.28 1146.87,4 -4,4"/>
<text xml:space="preserve" text-anchor="start" x="416.56" y="-61.28" font-family="Helvetica,sans-Serif" font-weight="bold" font-size="20.00">sequence&#45;dl — BiLSTMClassifier</text>
<text xml:space="preserve" text-anchor="start" x="474.69" y="-49.83" font-family="Helvetica,sans-Serif" font-size="11.00">automl/core/approaches/sequence_dl.py</text>
<!-- input -->
<g id="node1" class="node">
<title>input</title>
<ellipse fill="#e8eaf6" stroke="#3f51b5" stroke-width="1.3" cx="58.55" cy="-22.14" rx="58.55" ry="21.76"/>
<text xml:space="preserve" text-anchor="middle" x="58.55" y="-16.54" font-family="Helvetica,sans-Serif" font-size="13.00">input_ids</text>
</g>
<!-- embed -->
<g id="node2" class="node">
<title>embed</title>
<path fill="#e0f2f1" stroke="#00695c" stroke-width="1.3" d="M306.4,-44.28C306.4,-44.28 165.1,-44.28 165.1,-44.28 159.1,-44.28 153.1,-38.28 153.1,-32.28 153.1,-32.28 153.1,-12 153.1,-12 153.1,-6 159.1,0 165.1,0 165.1,0 306.4,0 306.4,0 312.4,0 318.4,-6 318.4,-12 318.4,-12 318.4,-32.28 318.4,-32.28 318.4,-38.28 312.4,-44.28 306.4,-44.28"/>
<text xml:space="preserve" text-anchor="middle" x="235.75" y="-23.29" font-family="Helvetica,sans-Serif" font-size="13.00">Embedding</text>
<text xml:space="preserve" text-anchor="middle" x="235.75" y="-9.79" font-family="Helvetica,sans-Serif" font-size="13.00">(pretrained warm&#45;start)</text>
</g>
<!-- input&#45;&gt;embed -->
<g id="edge1" class="edge">
<title>input&#45;&gt;embed</title>
<path fill="none" stroke="#555555" stroke-width="1.1" d="M117.4,-22.14C125.06,-22.14 133.05,-22.14 141.12,-22.14"/>
<polygon fill="#555555" stroke="#555555" stroke-width="1.1" points="140.88,-25.64 150.88,-22.14 140.88,-18.64 140.88,-25.64"/>
</g>
<!-- lstm -->
<g id="node3" class="node">
<title>lstm</title>
<polygon fill="#d1c4e9" stroke="#4527a0" stroke-width="1.3" points="574.45,-44.28 358.4,-44.28 354.4,-40.28 354.4,0 570.45,0 574.45,-4 574.45,-44.28"/>
<polyline fill="none" stroke="#4527a0" stroke-width="1.3" points="570.45,-40.28 354.4,-40.28"/>
<polyline fill="none" stroke="#4527a0" stroke-width="1.3" points="570.45,-40.28 570.45,0"/>
<polyline fill="none" stroke="#4527a0" stroke-width="1.3" points="570.45,-40.28 574.45,-44.28"/>
<text xml:space="preserve" text-anchor="middle" x="464.42" y="-23.29" font-family="Helvetica,sans-Serif" font-size="13.00">Bidirectional LSTM</text>
<text xml:space="preserve" text-anchor="middle" x="464.42" y="-9.79" font-family="Helvetica,sans-Serif" font-size="13.00">(seq_num_layers × hidden_dim)</text>
</g>
<!-- embed&#45;&gt;lstm -->
<g id="edge2" class="edge">
<title>embed&#45;&gt;lstm</title>
<path fill="none" stroke="#555555" stroke-width="1.1" d="M318.9,-22.14C326.56,-22.14 334.43,-22.14 342.35,-22.14"/>
<polygon fill="#555555" stroke="#555555" stroke-width="1.1" points="342.3,-25.64 352.3,-22.14 342.3,-18.64 342.3,-25.64"/>
</g>
<!-- attn -->
<g id="node4" class="node">
<title>attn</title>
<path fill="#fce4ec" stroke="#c2185b" stroke-width="1.3" d="M794.5,-44.28C794.5,-44.28 622.45,-44.28 622.45,-44.28 616.45,-44.28 610.45,-38.28 610.45,-32.28 610.45,-32.28 610.45,-12 610.45,-12 610.45,-6 616.45,0 622.45,0 622.45,0 794.5,0 794.5,0 800.5,0 806.5,-6 806.5,-12 806.5,-12 806.5,-32.28 806.5,-32.28 806.5,-38.28 800.5,-44.28 794.5,-44.28"/>
<text xml:space="preserve" text-anchor="middle" x="708.47" y="-23.29" font-family="Helvetica,sans-Serif" font-size="13.00">Attention pooling</text>
<text xml:space="preserve" text-anchor="middle" x="708.47" y="-9.79" font-family="Helvetica,sans-Serif" font-size="13.00">(masked, over all timesteps)</text>
</g>
<!-- lstm&#45;&gt;attn -->
<g id="edge3" class="edge">
<title>lstm&#45;&gt;attn</title>
<path fill="none" stroke="#555555" stroke-width="1.1" d="M574.76,-22.14C582.67,-22.14 590.65,-22.14 598.56,-22.14"/>
<polygon fill="#555555" stroke="#555555" stroke-width="1.1" points="598.42,-25.64 608.42,-22.14 598.42,-18.64 598.42,-25.64"/>
</g>
<!-- dropout -->
<g id="node5" class="node">
<title>dropout</title>
<path fill="#eceff1" stroke="#455a64" stroke-width="1.3" d="M907.3,-40.14C907.3,-40.14 854.5,-40.14 854.5,-40.14 848.5,-40.14 842.5,-34.14 842.5,-28.14 842.5,-28.14 842.5,-16.14 842.5,-16.14 842.5,-10.14 848.5,-4.14 854.5,-4.14 854.5,-4.14 907.3,-4.14 907.3,-4.14 913.3,-4.14 919.3,-10.14 919.3,-16.14 919.3,-16.14 919.3,-28.14 919.3,-28.14 919.3,-34.14 913.3,-40.14 907.3,-40.14"/>
<text xml:space="preserve" text-anchor="middle" x="880.9" y="-16.54" font-family="Helvetica,sans-Serif" font-size="13.00">Dropout</text>
</g>
<!-- attn&#45;&gt;dropout -->
<g id="edge4" class="edge">
<title>attn&#45;&gt;dropout</title>
<path fill="none" stroke="#555555" stroke-width="1.1" d="M807.13,-22.14C815.13,-22.14 822.99,-22.14 830.4,-22.14"/>
<polygon fill="#555555" stroke="#555555" stroke-width="1.1" points="830.36,-25.64 840.36,-22.14 830.36,-18.64 830.36,-25.64"/>
</g>
<!-- fc -->
<g id="node6" class="node">
<title>fc</title>
<path fill="#ffccbc" stroke="#bf360c" stroke-width="1.3" d="M1009.6,-40.14C1009.6,-40.14 967.3,-40.14 967.3,-40.14 961.3,-40.14 955.3,-34.14 955.3,-28.14 955.3,-28.14 955.3,-16.14 955.3,-16.14 955.3,-10.14 961.3,-4.14 967.3,-4.14 967.3,-4.14 1009.6,-4.14 1009.6,-4.14 1015.6,-4.14 1021.6,-10.14 1021.6,-16.14 1021.6,-16.14 1021.6,-28.14 1021.6,-28.14 1021.6,-34.14 1015.6,-40.14 1009.6,-40.14"/>
<text xml:space="preserve" text-anchor="middle" x="988.45" y="-16.54" font-family="Helvetica,sans-Serif" font-size="13.00">Linear</text>
</g>
<!-- dropout&#45;&gt;fc -->
<g id="edge5" class="edge">
<title>dropout&#45;&gt;fc</title>
<path fill="none" stroke="#555555" stroke-width="1.1" d="M919.7,-22.14C927.33,-22.14 935.4,-22.14 943.22,-22.14"/>
<polygon fill="#555555" stroke="#555555" stroke-width="1.1" points="943.13,-25.64 953.13,-22.14 943.13,-18.64 943.13,-25.64"/>
</g>
<!-- output -->
<g id="node7" class="node">
<title>output</title>
<ellipse fill="#e8eaf6" stroke="#3f51b5" stroke-width="1.3" cx="1100.24" cy="-22.14" rx="42.64" ry="21.76"/>
<text xml:space="preserve" text-anchor="middle" x="1100.24" y="-16.54" font-family="Helvetica,sans-Serif" font-size="13.00">logits</text>
</g>
<!-- fc&#45;&gt;output -->
<g id="edge6" class="edge">
<title>fc&#45;&gt;output</title>
<path fill="none" stroke="#555555" stroke-width="1.1" d="M1022.09,-22.14C1029.48,-22.14 1037.52,-22.14 1045.52,-22.14"/>
<polygon fill="#555555" stroke="#555555" stroke-width="1.1" points="1045.48,-25.64 1055.48,-22.14 1045.48,-18.64 1045.48,-25.64"/>
</g>
</g>
</svg>
