<?xml version="1.0" encoding="UTF-8" standalone="no"?>
<!DOCTYPE svg PUBLIC "-//W3C//DTD SVG 1.1//EN"
        "http://www.w3.org/Graphics/SVG/1.1/DTD/svg11.dtd">
<!-- Generated by graphviz version 14.0.4 (20251115.1723)
 -->
<!-- Title: ifBO Pages: 1 -->
<svg width="1194pt" height="731pt"
     viewBox="0.00 0.00 1194.00 731.00" xmlns="http://www.w3.org/2000/svg">
    <g id="graph0" class="graph" transform="scale(1 1) rotate(0) translate(4 727.06)">
        <title>ifBO</title>
        <polygon fill="white" stroke="none" points="-4,4 -4,-727.06 1189.6,-727.06 1189.6,4 -4,4"/>
        <!-- start -->
        <g id="node1" class="node">
            <title>start</title>
            <ellipse fill="#e8eaf6" stroke="#3f51b5" stroke-width="1.3" cx="607.12" cy="-658.18" rx="91.22" ry="25.88"/>
            <text xml:space="preserve" text-anchor="middle" x="607.12" y="-653.33" font-family="Helvetica,sans-Serif"
                  font-size="13.00">Start (pool = ∅)</text>
        </g>
        <!-- gate -->
        <g id="node4" class="node">
            <title>gate</title>
            <path fill="#fce4ec" stroke="#c2185b" stroke-width="1.3"
                  d="M595.3,-593.26C595.3,-593.26 337.7,-548.74 337.7,-548.74 331.79,-547.72 331.79,-545.68 337.7,-544.66 337.7,-544.66 595.3,-500.14 595.3,-500.14 601.21,-499.12 613.04,-499.12 618.95,-500.14 618.95,-500.14 876.55,-544.66 876.55,-544.66 882.46,-545.68 882.46,-547.72 876.55,-548.74 876.55,-548.74 618.95,-593.26 618.95,-593.26 613.04,-594.28 601.21,-594.28 595.3,-593.26"/>
            <text xml:space="preserve" text-anchor="middle" x="607.12" y="-547.85" font-family="Helvetica,sans-Serif"
                  font-size="13.00">ε&#45;greedy gate</text>
            <text xml:space="preserve" text-anchor="middle" x="607.12" y="-534.35" font-family="Helvetica,sans-Serif"
                  font-size="13.00">explore vs. exploit, ε decays over the run</text>
        </g>
        <!-- start&#45;&gt;gate -->
        <g id="edge1" class="edge">
            <title>start&#45;&gt;gate</title>
            <path fill="none" stroke="#555555" stroke-width="1.1"
                  d="M607.12,-631.79C607.12,-624.32 607.12,-615.82 607.12,-607.16"/>
            <polygon fill="#555555" stroke="#555555" stroke-width="1.1"
                     points="610.63,-607.42 607.13,-597.42 603.63,-607.42 610.63,-607.42"/>
        </g>
        <!-- space -->
        <g id="node2" class="node">
            <title>space</title>
            <ellipse fill="#e8eaf6" stroke="#3f51b5" stroke-width="1.3" cx="1046.12" cy="-546.7" rx="139.48"
                     ry="34.37"/>
            <text xml:space="preserve" text-anchor="middle" x="1046.12" y="-547.85" font-family="Helvetica,sans-Serif"
                  font-size="13.00">Search space Λ</text>
            <text xml:space="preserve" text-anchor="middle" x="1046.12" y="-534.35" font-family="Helvetica,sans-Serif"
                  font-size="13.00">(BiLSTM hyperparameters)</text>
        </g>
        <!-- explore -->
        <g id="node5" class="node">
            <title>explore</title>
            <path fill="#e1f5fe" stroke="#0277bd" stroke-width="1.3"
                  d="M795.12,-450.1C795.12,-450.1 579.12,-450.1 579.12,-450.1 573.12,-450.1 567.12,-444.1 567.12,-438.1 567.12,-438.1 567.12,-413.5 567.12,-413.5 567.12,-407.5 573.12,-401.5 579.12,-401.5 579.12,-401.5 795.12,-401.5 795.12,-401.5 801.12,-401.5 807.12,-407.5 807.12,-413.5 807.12,-413.5 807.12,-438.1 807.12,-438.1 807.12,-444.1 801.12,-450.1 795.12,-450.1"/>
            <text xml:space="preserve" text-anchor="middle" x="687.12" y="-426.95" font-family="Helvetica,sans-Serif"
                  font-size="13.00">EXPLORE (prob ε)</text>
            <text xml:space="preserve" text-anchor="middle" x="687.12" y="-413.45" font-family="Helvetica,sans-Serif"
                  font-size="13.00">sample a brand&#45;new config from Λ</text>
        </g>
        <!-- space&#45;&gt;explore -->
        <g id="edge2" class="edge">
            <title>space&#45;&gt;explore</title>
            <path fill="none" stroke="#555555" stroke-width="1.1"
                  d="M963.76,-518.42C905.81,-499.23 828.52,-473.63 770.37,-454.37"/>
            <polygon fill="#555555" stroke="#555555" stroke-width="1.1"
                     points="771.55,-451.08 760.96,-451.25 769.35,-457.72 771.55,-451.08"/>
            <text xml:space="preserve" text-anchor="middle" x="865.38" y="-469.65" font-family="Helvetica,sans-Serif"
                  font-size="11.00"> &#160;sample</text>
        </g>
        <!-- pool -->
        <g id="node3" class="node">
            <title>pool</title>
            <path fill="#e0f2f1" stroke="#00695c" stroke-width="1.3"
                  d="M296.25,-571C296.25,-571 12,-571 12,-571 6,-571 0,-565 0,-559 0,-559 0,-534.4 0,-534.4 0,-528.4 6,-522.4 12,-522.4 12,-522.4 296.25,-522.4 296.25,-522.4 302.25,-522.4 308.25,-528.4 308.25,-534.4 308.25,-534.4 308.25,-559 308.25,-559 308.25,-565 302.25,-571 296.25,-571"/>
            <text xml:space="preserve" text-anchor="middle" x="154.12" y="-547.85" font-family="Helvetica,sans-Serif"
                  font-size="13.00">Candidate pool</text>
            <text xml:space="preserve" text-anchor="middle" x="154.12" y="-534.35" font-family="Helvetica,sans-Serif"
                  font-size="13.00">partial learning curves (freeze&#45;thaw history H)</text>
        </g>
        <!-- surrogate -->
        <g id="node6" class="node">
            <title>surrogate</title>
            <polygon fill="#d1c4e9" stroke="#4527a0" stroke-width="1.3"
                     points="549.5,-450.1 270.75,-450.1 266.75,-446.1 266.75,-401.5 545.5,-401.5 549.5,-405.5 549.5,-450.1"/>
            <polyline fill="none" stroke="#4527a0" stroke-width="1.3" points="545.5,-446.1 266.75,-446.1"/>
            <polyline fill="none" stroke="#4527a0" stroke-width="1.3" points="545.5,-446.1 545.5,-401.5"/>
            <polyline fill="none" stroke="#4527a0" stroke-width="1.3" points="545.5,-446.1 549.5,-450.1"/>
            <text xml:space="preserve" text-anchor="middle" x="408.12" y="-426.95" font-family="Helvetica,sans-Serif"
                  font-size="13.00">FT&#45;PFN surrogate</text>
            <text xml:space="preserve" text-anchor="middle" x="408.12" y="-413.45" font-family="Helvetica,sans-Serif"
                  font-size="13.00">pretrained, frozen — in&#45;context prediction</text>
        </g>
        <!-- pool&#45;&gt;surrogate -->
        <g id="edge3" class="edge">
            <title>pool&#45;&gt;surrogate</title>
            <path fill="none" stroke="#555555" stroke-width="1.1"
                  d="M205.22,-521.78C246.04,-502.67 303.38,-475.83 346.7,-455.55"/>
            <polygon fill="#555555" stroke="#555555" stroke-width="1.1"
                     points="348.03,-458.8 355.6,-451.39 345.06,-452.46 348.03,-458.8"/>
            <text xml:space="preserve" text-anchor="middle" x="338.97" y="-469.65" font-family="Helvetica,sans-Serif"
                  font-size="11.00"> &#160;context</text>
        </g>
        <!-- gate&#45;&gt;explore -->
        <g id="edge4" class="edge">
            <title>gate&#45;&gt;explore</title>
            <path fill="none" stroke="#555555" stroke-width="1.1"
                  d="M636.01,-502.77C645.42,-488.78 655.73,-473.46 664.61,-460.27"/>
            <polygon fill="#555555" stroke="#555555" stroke-width="1.1"
                     points="667.47,-462.28 670.15,-452.03 661.66,-458.37 667.47,-462.28"/>
            <text xml:space="preserve" text-anchor="middle" x="664.97" y="-469.65" font-family="Helvetica,sans-Serif"
                  font-size="11.00"> &#160;ε</text>
        </g>
        <!-- gate&#45;&gt;surrogate -->
        <g id="edge5" class="edge">
            <title>gate&#45;&gt;surrogate</title>
            <path fill="none" stroke="#555555" stroke-width="1.1"
                  d="M544.71,-508.41C516.71,-491.68 484.14,-472.22 457.83,-456.5"/>
            <polygon fill="#555555" stroke="#555555" stroke-width="1.1"
                     points="459.89,-453.65 449.51,-451.52 456.3,-459.66 459.89,-453.65"/>
            <text xml:space="preserve" text-anchor="middle" x="508.09" y="-469.65" font-family="Helvetica,sans-Serif"
                  font-size="11.00"> &#160;1−ε</text>
        </g>
        <!-- train -->
        <g id="node8" class="node">
            <title>train</title>
            <path fill="#b2dfdb" stroke="#00695c" stroke-width="1.3"
                  d="M752.88,-256.9C752.88,-256.9 403.38,-256.9 403.38,-256.9 397.38,-256.9 391.38,-250.9 391.38,-244.9 391.38,-244.9 391.38,-220.3 391.38,-220.3 391.38,-214.3 397.38,-208.3 403.38,-208.3 403.38,-208.3 752.88,-208.3 752.88,-208.3 758.88,-208.3 764.88,-214.3 764.88,-220.3 764.88,-220.3 764.88,-244.9 764.88,-244.9 764.88,-250.9 758.88,-256.9 752.88,-256.9"/>
            <text xml:space="preserve" text-anchor="middle" x="578.12" y="-233.75" font-family="Helvetica,sans-Serif"
                  font-size="13.00">Train one more step</text>
            <text xml:space="preserve" text-anchor="middle" x="578.12" y="-220.25" font-family="Helvetica,sans-Serif"
                  font-size="13.00">checkpointed BiLSTM training, new curve point recorded</text>
        </g>
        <!-- explore&#45;&gt;train -->
        <g id="edge7" class="edge">
            <title>explore&#45;&gt;train</title>
            <path fill="none" stroke="#555555" stroke-width="1.1"
                  d="M682.47,-400.93C676.83,-375.72 665.68,-335.48 647.12,-304.9 638.42,-290.56 626.36,-276.82 614.75,-265.29"/>
            <polygon fill="#555555" stroke="#555555" stroke-width="1.1"
                     points="617.27,-262.86 607.63,-258.46 612.42,-267.91 617.27,-262.86"/>
        </g>
        <!-- acquisition -->
        <g id="node7" class="node">
            <title>acquisition</title>
            <path fill="#f3e5f5" stroke="#7b1fa2" stroke-width="1.3"
                  d="M626.5,-353.5C626.5,-353.5 313.75,-353.5 313.75,-353.5 307.75,-353.5 301.75,-347.5 301.75,-341.5 301.75,-341.5 301.75,-316.9 301.75,-316.9 301.75,-310.9 307.75,-304.9 313.75,-304.9 313.75,-304.9 626.5,-304.9 626.5,-304.9 632.5,-304.9 638.5,-310.9 638.5,-316.9 638.5,-316.9 638.5,-341.5 638.5,-341.5 638.5,-347.5 632.5,-353.5 626.5,-353.5"/>
            <text xml:space="preserve" text-anchor="middle" x="470.12" y="-330.35" font-family="Helvetica,sans-Serif"
                  font-size="13.00">MFPI&#45;random acquisition</text>
            <text xml:space="preserve" text-anchor="middle" x="470.12" y="-316.85" font-family="Helvetica,sans-Serif"
                  font-size="13.00">(prob 1−ε) pick the best existing candidate to thaw</text>
        </g>
        <!-- surrogate&#45;&gt;acquisition -->
        <g id="edge6" class="edge">
            <title>surrogate&#45;&gt;acquisition</title>
            <path fill="none" stroke="#555555" stroke-width="1.1"
                  d="M423.77,-400.93C431.19,-389.61 440.17,-375.9 448.25,-363.58"/>
            <polygon fill="#555555" stroke="#555555" stroke-width="1.1"
                     points="451.02,-365.74 453.57,-355.46 445.16,-361.9 451.02,-365.74"/>
            <text xml:space="preserve" text-anchor="middle" x="485.21" y="-373.05" font-family="Helvetica,sans-Serif"
                  font-size="11.00"> &#160;predicted curves</text>
        </g>
        <!-- acquisition&#45;&gt;train -->
        <g id="edge8" class="edge">
            <title>acquisition&#45;&gt;train</title>
            <path fill="none" stroke="#555555" stroke-width="1.1"
                  d="M497.38,-304.33C511.06,-292.34 527.82,-277.67 542.51,-264.8"/>
            <polygon fill="#555555" stroke="#555555" stroke-width="1.1"
                     points="544.41,-267.78 549.63,-258.56 539.8,-262.52 544.41,-267.78"/>
            <text xml:space="preserve" text-anchor="middle" x="569.22" y="-276.45" font-family="Helvetica,sans-Serif"
                  font-size="11.00"> &#160;selected config</text>
        </g>
        <!-- train&#45;&gt;pool -->
        <g id="edge9" class="edge">
            <title>train&#45;&gt;pool</title>
            <path fill="none" stroke="#555555" stroke-width="1.1"
                  d="M723.08,-257.48C750.52,-268.01 776.69,-283.15 796.12,-304.9 809.82,-320.22 838.17,-422.88 816.12,-450.1 781.08,-493.39 372.05,-488.83 317.12,-498.1 289.53,-502.76 259.98,-510.51 233.73,-518.41"/>
            <polygon fill="#555555" stroke="#555555" stroke-width="1.1"
                     points="232.82,-515.03 224.28,-521.32 234.87,-521.72 232.82,-515.03"/>
            <text xml:space="preserve" text-anchor="middle" x="863.69" y="-373.05" font-family="Helvetica,sans-Serif"
                  font-size="11.00"> &#160;new observation</text>
        </g>
        <!-- budget_check -->
        <g id="node9" class="node">
            <title>budget_check</title>
            <path fill="#fff9c4" stroke="#f9a825" stroke-width="1.3"
                  d="M566.44,-168.58C566.44,-168.58 439.06,-138.92 439.06,-138.92 433.22,-137.56 433.22,-134.84 439.06,-133.48 439.06,-133.48 566.44,-103.82 566.44,-103.82 572.28,-102.46 583.97,-102.46 589.81,-103.82 589.81,-103.82 717.19,-133.48 717.19,-133.48 723.03,-134.84 723.03,-137.56 717.19,-138.92 717.19,-138.92 589.81,-168.58 589.81,-168.58 583.97,-169.94 572.28,-169.94 566.44,-168.58"/>
            <text xml:space="preserve" text-anchor="middle" x="578.12" y="-130.6" font-family="Helvetica,sans-Serif"
                  font-size="13.00">budget exhausted?</text>
        </g>
        <!-- train&#45;&gt;budget_check -->
        <g id="edge10" class="edge">
            <title>train&#45;&gt;budget_check</title>
            <path fill="none" stroke="#555555" stroke-width="1.1"
                  d="M578.12,-207.78C578.12,-200.27 578.12,-191.7 578.12,-183.19"/>
            <polygon fill="#555555" stroke="#555555" stroke-width="1.1"
                     points="581.63,-183.38 578.13,-173.38 574.63,-183.38 581.63,-183.38"/>
        </g>
        <!-- budget_check&#45;&gt;gate -->
        <g id="edge11" class="edge">
            <title>budget_check&#45;&gt;gate</title>
            <path fill="none" stroke="#9e9e9e" stroke-width="1.1" stroke-dasharray="5,2"
                  d="M669.83,-150.61C707.14,-160.59 747.62,-177.98 774.12,-208.3 831.96,-274.45 806.74,-314.13 816.12,-401.5 818.43,-422.98 830.56,-434.03 816.12,-450.1 791.03,-478.03 679.2,-447.03 648.12,-468.1 639.79,-473.75 633.02,-481.66 624.57,-493.28"/>
            <polygon fill="#9e9e9e" stroke="#9e9e9e" stroke-width="1.1"
                     points="621.64,-491.36 619.78,-501.79 627.74,-494.79 621.64,-491.36"/>
            <text xml:space="preserve" text-anchor="middle" x="849.21" y="-324.75" font-family="Helvetica,sans-Serif"
                  font-size="11.00">no, keep going</text>
        </g>
        <!-- output -->
        <g id="node10" class="node">
            <title>output</title>
            <path fill="#ffccbc" stroke="#bf360c" stroke-width="1.3"
                  d="M694,-53.1C694,-53.1 462.25,-53.1 462.25,-53.1 456.25,-53.1 450.25,-47.1 450.25,-41.1 450.25,-41.1 450.25,-12 450.25,-12 450.25,-6 456.25,0 462.25,0 462.25,0 694,0 694,0 700,0 706,-6 706,-12 706,-12 706,-41.1 706,-41.1 706,-47.1 700,-53.1 694,-53.1"/>
            <text xml:space="preserve" text-anchor="middle" x="578.12" y="-29.95" font-family="Helvetica,sans-Serif"
                  font-size="13.00">Incumbent ensemble → majority vote</text>
            <text xml:space="preserve" text-anchor="middle" x="578.12" y="-14.2" font-family="Helvetica,sans-Serif"
                  font-size="13.00">→ predictions.npy</text>
        </g>
        <!-- budget_check&#45;&gt;output -->
        <g id="edge12" class="edge">
            <title>budget_check&#45;&gt;output</title>
            <path fill="none" stroke="#555555" stroke-width="1.1"
                  d="M578.12,-100.55C578.12,-89.23 578.12,-76.62 578.12,-65.1"/>
            <polygon fill="#555555" stroke="#555555" stroke-width="1.1"
                     points="581.63,-65.27 578.13,-55.27 574.63,-65.27 581.63,-65.27"/>
            <text xml:space="preserve" text-anchor="middle" x="586.38" y="-72.65" font-family="Helvetica,sans-Serif"
                  font-size="11.00">yes</text>
        </g>
    </g>
</svg>